<mxfile host="Electron" modified="2023-08-31T11:35:05.680Z" agent="Mozilla/5.0 (Macintosh; Intel Mac OS X 10_15_7) AppleWebKit/537.36 (KHTML, like Gecko) draw.io/21.2.8 Chrome/112.0.5615.165 Electron/24.2.0 Safari/537.36" etag="_1FnWv56zJ1OWfk_ghzQ" version="21.2.8" type="device">
  <diagram name="Page-1" id="Q06nOqRc5l5WKmowrGHO">
    <mxGraphModel dx="708" dy="474" grid="1" gridSize="10" guides="1" tooltips="1" connect="1" arrows="1" fold="1" page="1" pageScale="1" pageWidth="850" pageHeight="1100" math="0" shadow="0">
      <root>
        <mxCell id="0" />
        <mxCell id="1" parent="0" />
        <mxCell id="NNLgp_yfKTOoaNLjSgnM-1" value="AbstractClass" style="swimlane;fontStyle=3;childLayout=stackLayout;horizontal=1;startSize=30;fillColor=none;horizontalStack=0;resizeParent=1;resizeParentMax=0;resizeLast=0;collapsible=0;marginBottom=0;fontSize=12;swimlaneHead=1;swimlaneBody=1;connectable=1;allowArrows=1;dropTarget=1;align=left;spacingLeft=5;" vertex="1" parent="1">
          <mxGeometry x="220" y="210" width="130" height="120" as="geometry">
            <mxRectangle x="245" y="370" width="90" height="26" as="alternateBounds" />
          </mxGeometry>
        </mxCell>
        <mxCell id="NNLgp_yfKTOoaNLjSgnM-2" value="TemplateMethod()" style="text;strokeColor=none;fillColor=none;align=left;verticalAlign=middle;spacingLeft=5;spacingRight=4;overflow=hidden;rotatable=0;points=[[0,0.5],[1,0.5]];portConstraint=eastwest;fontSize=12;fontStyle=0;connectable=0;" vertex="1" parent="NNLgp_yfKTOoaNLjSgnM-1">
          <mxGeometry y="30" width="130" height="30" as="geometry" />
        </mxCell>
        <mxCell id="NNLgp_yfKTOoaNLjSgnM-3" value="PrimitiveOperation1()" style="text;strokeColor=none;fillColor=none;align=left;verticalAlign=middle;spacingLeft=5;spacingRight=4;overflow=hidden;rotatable=0;points=[[0,0.5],[1,0.5]];portConstraint=eastwest;fontSize=12;fontStyle=2;connectable=0;" vertex="1" parent="NNLgp_yfKTOoaNLjSgnM-1">
          <mxGeometry y="60" width="130" height="30" as="geometry" />
        </mxCell>
        <mxCell id="NNLgp_yfKTOoaNLjSgnM-4" value="PrimitiveOperation2()" style="text;strokeColor=none;fillColor=none;align=left;verticalAlign=middle;spacingLeft=5;spacingRight=4;overflow=hidden;rotatable=0;points=[[0,0.5],[1,0.5]];portConstraint=eastwest;fontSize=12;fontStyle=2;connectable=0;" vertex="1" parent="NNLgp_yfKTOoaNLjSgnM-1">
          <mxGeometry y="90" width="130" height="30" as="geometry" />
        </mxCell>
        <mxCell id="NNLgp_yfKTOoaNLjSgnM-5" value="ConcreteClass" style="swimlane;fontStyle=1;childLayout=stackLayout;horizontal=1;startSize=30;fillColor=none;horizontalStack=0;resizeParent=1;resizeParentMax=0;resizeLast=0;collapsible=0;marginBottom=0;fontSize=12;swimlaneHead=1;swimlaneBody=1;connectable=1;allowArrows=1;dropTarget=1;align=left;spacingLeft=5;" vertex="1" parent="1">
          <mxGeometry x="220" y="370" width="130" height="90" as="geometry">
            <mxRectangle x="245" y="370" width="90" height="26" as="alternateBounds" />
          </mxGeometry>
        </mxCell>
        <mxCell id="NNLgp_yfKTOoaNLjSgnM-7" value="PrimitiveOperation1()" style="text;strokeColor=none;fillColor=none;align=left;verticalAlign=middle;spacingLeft=5;spacingRight=4;overflow=hidden;rotatable=0;points=[[0,0.5],[1,0.5]];portConstraint=eastwest;fontSize=12;fontStyle=0;connectable=0;" vertex="1" parent="NNLgp_yfKTOoaNLjSgnM-5">
          <mxGeometry y="30" width="130" height="30" as="geometry" />
        </mxCell>
        <mxCell id="NNLgp_yfKTOoaNLjSgnM-8" value="PrimitiveOperation2()" style="text;strokeColor=none;fillColor=none;align=left;verticalAlign=middle;spacingLeft=5;spacingRight=4;overflow=hidden;rotatable=0;points=[[0,0.5],[1,0.5]];portConstraint=eastwest;fontSize=12;fontStyle=0;connectable=0;" vertex="1" parent="NNLgp_yfKTOoaNLjSgnM-5">
          <mxGeometry y="60" width="130" height="30" as="geometry" />
        </mxCell>
        <mxCell id="NNLgp_yfKTOoaNLjSgnM-9" value="" style="html=1;verticalAlign=bottom;labelBackgroundColor=none;endArrow=oval;endFill=0;endSize=8;rounded=0;fontSize=12;exitX=0;exitY=0.5;exitDx=0;exitDy=0;exitPerimeter=0;anchorPointDirection=0;dashed=1;" edge="1" source="NNLgp_yfKTOoaNLjSgnM-10" parent="1">
          <mxGeometry width="160" relative="1" as="geometry">
            <mxPoint x="625" y="181.5" as="sourcePoint" />
            <mxPoint x="336" y="256.5" as="targetPoint" />
          </mxGeometry>
        </mxCell>
        <mxCell id="NNLgp_yfKTOoaNLjSgnM-10" value="...&lt;br&gt;PrimitiveOperation1()&lt;br&gt;...&lt;br&gt;PrimitiveOperation1()&lt;br&gt;..." style="shape=note2;boundedLbl=1;whiteSpace=wrap;html=1;size=25;verticalAlign=middle;align=left;spacingLeft=5;fontSize=12;startSize=30;fillColor=none;" vertex="1" parent="1">
          <mxGeometry x="398" y="217" width="255" height="79" as="geometry" />
        </mxCell>
        <mxCell id="NNLgp_yfKTOoaNLjSgnM-11" value="" style="edgeStyle=orthogonalEdgeStyle;rounded=0;orthogonalLoop=1;jettySize=auto;html=1;fontSize=12;startSize=30;endArrow=block;endFill=0;exitX=0.5;exitY=0;exitDx=0;exitDy=0;entryX=0.5;entryY=1;entryDx=0;entryDy=0;" edge="1" parent="1" source="NNLgp_yfKTOoaNLjSgnM-5" target="NNLgp_yfKTOoaNLjSgnM-1">
          <mxGeometry relative="1" as="geometry">
            <mxPoint x="300" y="384" as="sourcePoint" />
            <mxPoint x="300" y="350" as="targetPoint" />
          </mxGeometry>
        </mxCell>
      </root>
    </mxGraphModel>
  </diagram>
</mxfile>
